<?xml version="1.0" encoding="UTF-8"?>
<svg id="Layer_1" data-name="Layer 1" xmlns="http://www.w3.org/2000/svg" viewBox="0 0 512 234.06">
  <path fill="#fff" d="M394.97,0l-21.94,43.89h58.51c-22.03,44.05-48.82,97.64-73.14,146.29h-58.51l-21.94,43.89h117.03C431.64,160.72,475.33,73.33,512,0h-117.03Z"/>
  <path fill="#fff" d="M329.14,43.89L351.09,0H219.43c-22.43,44.85-50.87,101.74-73.14,146.29h73.14c-13.46,26.92-30.45,60.9-43.89,87.77h58.51c21.16-42.32,44.65-89.31,65.83-131.66h-73.14l29.26-58.51h73.14Z"/>
  <path fill="#fff" d="M153.6,190.17H80.46C108.86,133.37,146.9,57.28,175.54,0h-58.51C80.36,73.33,36.67,160.73,0,234.06H131.66l10.84-21.68,11.1-22.21Z"/>
</svg>
